<mxfile host="app.diagrams.net" modified="2021-06-13T14:06:58.124Z" agent="5.0 (X11; Linux x86_64) AppleWebKit/537.36 (KHTML, like Gecko) Chrome/91.0.4472.77 Safari/537.36" etag="W60WtBtVBv20C2Tp1Psv" version="14.7.7" type="github">
  <diagram id="BkdP9_3qdBWuDpabCgVC" name="Page-1">
    <mxGraphModel dx="3220" dy="2353" grid="1" gridSize="10" guides="1" tooltips="1" connect="1" arrows="1" fold="1" page="1" pageScale="1" pageWidth="850" pageHeight="1100" math="0" shadow="0">
      <root>
        <mxCell id="0" />
        <mxCell id="1" parent="0" />
        <mxCell id="vp3Ed_rUJPtScr4eGyFw-6" value="" style="rounded=0;whiteSpace=wrap;html=1;direction=south;" parent="1" vertex="1">
          <mxGeometry x="130" y="110" width="270" height="430" as="geometry" />
        </mxCell>
        <mxCell id="vp3Ed_rUJPtScr4eGyFw-7" value="" style="rounded=0;whiteSpace=wrap;html=1;direction=south;" parent="1" vertex="1">
          <mxGeometry x="440" y="110" width="550" height="430" as="geometry" />
        </mxCell>
        <mxCell id="vp3Ed_rUJPtScr4eGyFw-8" value="" style="rounded=0;whiteSpace=wrap;html=1;direction=south;" parent="1" vertex="1">
          <mxGeometry x="140" y="900" width="870" height="180" as="geometry" />
        </mxCell>
        <mxCell id="vp3Ed_rUJPtScr4eGyFw-9" value="" style="shape=mxgraph.bpmn.loop;html=1;outlineConnect=0;direction=south;" parent="1" vertex="1">
          <mxGeometry x="240" y="570" width="90" height="90" as="geometry" />
        </mxCell>
        <mxCell id="vp3Ed_rUJPtScr4eGyFw-10" value="Call Stack" style="text;html=1;strokeColor=none;fillColor=none;align=center;verticalAlign=middle;whiteSpace=wrap;rounded=0;fontSize=19;" parent="1" vertex="1">
          <mxGeometry x="130" y="120" width="110" height="20" as="geometry" />
        </mxCell>
        <mxCell id="vp3Ed_rUJPtScr4eGyFw-12" value="WebAPIs and C++ APIs" style="text;html=1;strokeColor=none;fillColor=none;align=center;verticalAlign=middle;whiteSpace=wrap;rounded=0;fontSize=19;" parent="1" vertex="1">
          <mxGeometry x="455.5" y="120" width="219" height="20" as="geometry" />
        </mxCell>
        <mxCell id="vp3Ed_rUJPtScr4eGyFw-13" value="Callback Queue" style="text;html=1;strokeColor=none;fillColor=none;align=center;verticalAlign=middle;whiteSpace=wrap;rounded=0;fontSize=19;" parent="1" vertex="1">
          <mxGeometry x="150" y="910" width="150" height="20" as="geometry" />
        </mxCell>
        <mxCell id="vp3Ed_rUJPtScr4eGyFw-14" value="Event Loop" style="text;html=1;strokeColor=none;fillColor=none;align=center;verticalAlign=middle;whiteSpace=wrap;rounded=0;fontSize=19;" parent="1" vertex="1">
          <mxGeometry x="130" y="605" width="100" height="20" as="geometry" />
        </mxCell>
        <mxCell id="vp3Ed_rUJPtScr4eGyFw-16" value="" style="rounded=0;whiteSpace=wrap;html=1;direction=south;" parent="1" vertex="1">
          <mxGeometry x="-180" y="110" width="270" height="430" as="geometry" />
        </mxCell>
        <mxCell id="vp3Ed_rUJPtScr4eGyFw-17" value="Memory Heap" style="text;html=1;strokeColor=none;fillColor=none;align=center;verticalAlign=middle;whiteSpace=wrap;rounded=0;fontSize=19;" parent="1" vertex="1">
          <mxGeometry x="-170" y="120" width="130" height="20" as="geometry" />
        </mxCell>
        <mxCell id="vp3Ed_rUJPtScr4eGyFw-19" value="Timer" style="rounded=1;whiteSpace=wrap;html=1;fontSize=19;" parent="1" vertex="1">
          <mxGeometry x="460" y="160" width="510" height="60" as="geometry" />
        </mxCell>
        <mxCell id="vp3Ed_rUJPtScr4eGyFw-20" value="XHR" style="rounded=1;whiteSpace=wrap;html=1;fontSize=19;" parent="1" vertex="1">
          <mxGeometry x="460" y="240" width="510" height="60" as="geometry" />
        </mxCell>
        <mxCell id="vp3Ed_rUJPtScr4eGyFw-21" value="DOM" style="rounded=1;whiteSpace=wrap;html=1;fontSize=19;" parent="1" vertex="1">
          <mxGeometry x="460" y="320" width="510" height="60" as="geometry" />
        </mxCell>
        <mxCell id="vp3Ed_rUJPtScr4eGyFw-22" value="console.log(&quot;Hello&quot;)" style="rounded=1;whiteSpace=wrap;html=1;fontSize=19;" parent="1" vertex="1">
          <mxGeometry x="150" y="460" width="230" height="60" as="geometry" />
        </mxCell>
        <mxCell id="vp3Ed_rUJPtScr4eGyFw-23" value="pop()" style="rounded=1;whiteSpace=wrap;html=1;fontSize=19;" parent="1" vertex="1">
          <mxGeometry x="150" y="380" width="230" height="60" as="geometry" />
        </mxCell>
        <mxCell id="vp3Ed_rUJPtScr4eGyFw-24" value="filter()" style="rounded=1;whiteSpace=wrap;html=1;fontSize=19;" parent="1" vertex="1">
          <mxGeometry x="150" y="300" width="230" height="60" as="geometry" />
        </mxCell>
        <mxCell id="vp3Ed_rUJPtScr4eGyFw-25" value="" style="whiteSpace=wrap;html=1;aspect=fixed;" parent="1" vertex="1">
          <mxGeometry x="-140" y="400" width="50" height="50" as="geometry" />
        </mxCell>
        <mxCell id="vp3Ed_rUJPtScr4eGyFw-26" value="" style="whiteSpace=wrap;html=1;aspect=fixed;" parent="1" vertex="1">
          <mxGeometry x="-70" y="330" width="50" height="50" as="geometry" />
        </mxCell>
        <mxCell id="vp3Ed_rUJPtScr4eGyFw-27" value="" style="whiteSpace=wrap;html=1;aspect=fixed;" parent="1" vertex="1">
          <mxGeometry x="-60" y="450" width="50" height="50" as="geometry" />
        </mxCell>
        <mxCell id="vp3Ed_rUJPtScr4eGyFw-28" value="" style="whiteSpace=wrap;html=1;aspect=fixed;" parent="1" vertex="1">
          <mxGeometry x="-150" y="280" width="50" height="50" as="geometry" />
        </mxCell>
        <mxCell id="vp3Ed_rUJPtScr4eGyFw-29" value="" style="whiteSpace=wrap;html=1;aspect=fixed;" parent="1" vertex="1">
          <mxGeometry x="10" y="370" width="50" height="50" as="geometry" />
        </mxCell>
        <mxCell id="vp3Ed_rUJPtScr4eGyFw-30" value="Callback 1" style="rounded=1;whiteSpace=wrap;html=1;fontSize=19;" parent="1" vertex="1">
          <mxGeometry x="160" y="950" width="160" height="60" as="geometry" />
        </mxCell>
        <mxCell id="vp3Ed_rUJPtScr4eGyFw-31" value="&lt;font style=&quot;font-size: 19px;&quot;&gt;Callback 2&lt;/font&gt;" style="rounded=1;whiteSpace=wrap;html=1;fontSize=19;" parent="1" vertex="1">
          <mxGeometry x="330" y="950" width="160" height="60" as="geometry" />
        </mxCell>
        <mxCell id="vp3Ed_rUJPtScr4eGyFw-32" value="Callback 3" style="rounded=1;whiteSpace=wrap;html=1;fontSize=19;" parent="1" vertex="1">
          <mxGeometry x="500" y="950" width="160" height="60" as="geometry" />
        </mxCell>
        <mxCell id="vp3Ed_rUJPtScr4eGyFw-34" value="" style="rounded=0;whiteSpace=wrap;html=1;direction=south;" parent="1" vertex="1">
          <mxGeometry x="140" y="1100" width="870" height="180" as="geometry" />
        </mxCell>
        <mxCell id="vp3Ed_rUJPtScr4eGyFw-35" value="Microtask Queue" style="text;html=1;strokeColor=none;fillColor=none;align=center;verticalAlign=middle;whiteSpace=wrap;rounded=0;fontSize=19;" parent="1" vertex="1">
          <mxGeometry x="150" y="1110" width="150" height="20" as="geometry" />
        </mxCell>
        <mxCell id="vp3Ed_rUJPtScr4eGyFw-38" value="Microtask 1" style="rounded=1;whiteSpace=wrap;html=1;fontSize=19;" parent="1" vertex="1">
          <mxGeometry x="160" y="1150" width="160" height="60" as="geometry" />
        </mxCell>
        <mxCell id="vp3Ed_rUJPtScr4eGyFw-39" value="Microtask 2" style="rounded=1;whiteSpace=wrap;html=1;fontSize=19;" parent="1" vertex="1">
          <mxGeometry x="330" y="1150" width="160" height="60" as="geometry" />
        </mxCell>
        <mxCell id="vp3Ed_rUJPtScr4eGyFw-40" value="Microtask 3" style="rounded=1;whiteSpace=wrap;html=1;fontSize=19;" parent="1" vertex="1">
          <mxGeometry x="500" y="1150" width="160" height="60" as="geometry" />
        </mxCell>
        <mxCell id="vp3Ed_rUJPtScr4eGyFw-43" value="Object" style="text;html=1;strokeColor=none;fillColor=none;align=center;verticalAlign=middle;whiteSpace=wrap;rounded=0;fontSize=19;" parent="1" vertex="1">
          <mxGeometry x="-145" y="250" width="40" height="20" as="geometry" />
        </mxCell>
        <mxCell id="vp3Ed_rUJPtScr4eGyFw-44" value="Object" style="text;html=1;strokeColor=none;fillColor=none;align=center;verticalAlign=middle;whiteSpace=wrap;rounded=0;fontSize=19;" parent="1" vertex="1">
          <mxGeometry x="-65" y="300" width="40" height="20" as="geometry" />
        </mxCell>
        <mxCell id="vp3Ed_rUJPtScr4eGyFw-45" value="Object" style="text;html=1;strokeColor=none;fillColor=none;align=center;verticalAlign=middle;whiteSpace=wrap;rounded=0;fontSize=19;" parent="1" vertex="1">
          <mxGeometry x="15" y="340" width="40" height="20" as="geometry" />
        </mxCell>
        <mxCell id="vp3Ed_rUJPtScr4eGyFw-46" value="Object" style="text;html=1;strokeColor=none;fillColor=none;align=center;verticalAlign=middle;whiteSpace=wrap;rounded=0;fontSize=19;" parent="1" vertex="1">
          <mxGeometry x="-135" y="370" width="40" height="20" as="geometry" />
        </mxCell>
        <mxCell id="vp3Ed_rUJPtScr4eGyFw-47" value="Object" style="text;html=1;strokeColor=none;fillColor=none;align=center;verticalAlign=middle;whiteSpace=wrap;rounded=0;fontSize=19;" parent="1" vertex="1">
          <mxGeometry x="-55" y="420" width="40" height="20" as="geometry" />
        </mxCell>
        <mxCell id="F3dvDNXk8t1JcE4rUVYM-1" value="" style="shape=image;verticalLabelPosition=bottom;labelBackgroundColor=#ffffff;verticalAlign=top;aspect=fixed;imageAspect=0;image=https://upload.wikimedia.org/wikipedia/commons/thumb/3/3f/V8_JavaScript_engine_logo_2.svg/1200px-V8_JavaScript_engine_logo_2.svg.png;" parent="1" vertex="1">
          <mxGeometry x="-190" y="-40" width="150" height="150" as="geometry" />
        </mxCell>
        <mxCell id="6QtukGbn-FIJw9YeCo-H-1" value="" style="shape=image;verticalLabelPosition=bottom;labelBackgroundColor=#ffffff;verticalAlign=top;aspect=fixed;imageAspect=0;image=http://4.bp.blogspot.com/-SAlsUK_Hwkw/TYGj8pt-kbI/AAAAAAAAAqE/blsfUwJWdbU/s1600/Google%2BChrome%2Bicon%2Bnew.png;" parent="1" vertex="1">
          <mxGeometry x="440" y="30" width="70" height="70" as="geometry" />
        </mxCell>
        <mxCell id="6QtukGbn-FIJw9YeCo-H-2" value="" style="shape=image;verticalLabelPosition=bottom;labelBackgroundColor=#ffffff;verticalAlign=top;aspect=fixed;imageAspect=0;image=https://raw.githubusercontent.com/isocpp/logos/master/cpp_logo.png;" parent="1" vertex="1">
          <mxGeometry x="520" y="28.65" width="63.53" height="71.35" as="geometry" />
        </mxCell>
        <mxCell id="MCUXpGSujRW6-5WqFEAj-1" value="&lt;font style=&quot;font-size: 19px&quot;&gt;JavaScript is single-threaded, non-blocking, asynchronous and concurrent&amp;nbsp;&lt;/font&gt;" style="text;html=1;strokeColor=none;fillColor=none;align=center;verticalAlign=middle;whiteSpace=wrap;rounded=0;" parent="1" vertex="1">
          <mxGeometry x="1000" y="120" width="400" height="20" as="geometry" />
        </mxCell>
        <mxCell id="ilvJonOSDYWT9VKSYLCs-7" value="" style="rounded=0;whiteSpace=wrap;html=1;direction=south;" parent="1" vertex="1">
          <mxGeometry x="140" y="700" width="870" height="180" as="geometry" />
        </mxCell>
        <mxCell id="ilvJonOSDYWT9VKSYLCs-8" value="Render Queue (triggered every 16.6 ms)" style="text;html=1;strokeColor=none;fillColor=none;align=left;verticalAlign=middle;whiteSpace=wrap;rounded=0;fontSize=19;" parent="1" vertex="1">
          <mxGeometry x="150" y="710" width="350" height="20" as="geometry" />
        </mxCell>
        <mxCell id="ilvJonOSDYWT9VKSYLCs-9" value="Element 1" style="rounded=1;whiteSpace=wrap;html=1;fontSize=19;" parent="1" vertex="1">
          <mxGeometry x="160" y="750" width="160" height="60" as="geometry" />
        </mxCell>
        <mxCell id="ilvJonOSDYWT9VKSYLCs-10" value="&lt;font style=&quot;font-size: 19px&quot;&gt;Element 2&lt;/font&gt;" style="rounded=1;whiteSpace=wrap;html=1;fontSize=19;" parent="1" vertex="1">
          <mxGeometry x="330" y="750" width="160" height="60" as="geometry" />
        </mxCell>
        <mxCell id="ilvJonOSDYWT9VKSYLCs-11" value="Element 3" style="rounded=1;whiteSpace=wrap;html=1;fontSize=19;" parent="1" vertex="1">
          <mxGeometry x="500" y="750" width="160" height="60" as="geometry" />
        </mxCell>
        <mxCell id="lwLxD6SXtwrRYqILnOid-1" value="" style="rounded=0;whiteSpace=wrap;html=1;direction=south;" vertex="1" parent="1">
          <mxGeometry x="-180" y="1410" width="530" height="180" as="geometry" />
        </mxCell>
        <mxCell id="lwLxD6SXtwrRYqILnOid-2" value="" style="rounded=0;whiteSpace=wrap;html=1;direction=south;" vertex="1" parent="1">
          <mxGeometry x="409.5" y="1410" width="350.5" height="240" as="geometry" />
        </mxCell>
        <mxCell id="lwLxD6SXtwrRYqILnOid-3" value="Global memory" style="text;html=1;strokeColor=none;fillColor=none;align=center;verticalAlign=middle;whiteSpace=wrap;rounded=0;fontSize=20;" vertex="1" parent="1">
          <mxGeometry x="390" y="1370" width="180.5" height="20" as="geometry" />
        </mxCell>
        <mxCell id="lwLxD6SXtwrRYqILnOid-4" value="Execution context" style="text;html=1;strokeColor=none;fillColor=none;align=center;verticalAlign=middle;whiteSpace=wrap;rounded=0;fontSize=20;" vertex="1" parent="1">
          <mxGeometry x="-195.25" y="1370" width="180.5" height="20" as="geometry" />
        </mxCell>
        <mxCell id="lwLxD6SXtwrRYqILnOid-5" value="" style="rounded=0;whiteSpace=wrap;html=1;direction=south;" vertex="1" parent="1">
          <mxGeometry x="80" y="1410" width="270.5" height="240" as="geometry" />
        </mxCell>
        <mxCell id="lwLxD6SXtwrRYqILnOid-6" value="" style="rounded=0;whiteSpace=wrap;html=1;direction=south;" vertex="1" parent="1">
          <mxGeometry x="-180.5" y="1410" width="270.5" height="240" as="geometry" />
        </mxCell>
        <mxCell id="lwLxD6SXtwrRYqILnOid-7" value="Instructions" style="text;html=1;strokeColor=none;fillColor=none;align=center;verticalAlign=middle;whiteSpace=wrap;rounded=0;fontSize=20;" vertex="1" parent="1">
          <mxGeometry x="-135" y="1420" width="40" height="20" as="geometry" />
        </mxCell>
        <mxCell id="lwLxD6SXtwrRYqILnOid-8" value="Local memory" style="text;html=1;strokeColor=none;fillColor=none;align=center;verticalAlign=middle;whiteSpace=wrap;rounded=0;fontSize=20;" vertex="1" parent="1">
          <mxGeometry x="100" y="1420" width="150" height="20" as="geometry" />
        </mxCell>
        <mxCell id="lwLxD6SXtwrRYqILnOid-10" value="counter++" style="rounded=1;whiteSpace=wrap;html=1;fontSize=19;" vertex="1" parent="1">
          <mxGeometry x="-170" y="1460" width="160" height="60" as="geometry" />
        </mxCell>
        <mxCell id="lwLxD6SXtwrRYqILnOid-11" value="counter: 0" style="rounded=1;whiteSpace=wrap;html=1;fontSize=19;" vertex="1" parent="1">
          <mxGeometry x="110" y="1460" width="155" height="60" as="geometry" />
        </mxCell>
        <mxCell id="lwLxD6SXtwrRYqILnOid-12" value="getCounter: f with closure" style="rounded=1;whiteSpace=wrap;html=1;fontSize=19;" vertex="1" parent="1">
          <mxGeometry x="110" y="1530" width="230" height="60" as="geometry" />
        </mxCell>
        <mxCell id="lwLxD6SXtwrRYqILnOid-14" value="variableA: 0" style="rounded=1;whiteSpace=wrap;html=1;fontSize=19;" vertex="1" parent="1">
          <mxGeometry x="428.53" y="1430" width="155" height="60" as="geometry" />
        </mxCell>
        <mxCell id="lwLxD6SXtwrRYqILnOid-15" value="variableB: 1" style="rounded=1;whiteSpace=wrap;html=1;fontSize=19;" vertex="1" parent="1">
          <mxGeometry x="428.53" y="1500" width="155" height="60" as="geometry" />
        </mxCell>
        <mxCell id="lwLxD6SXtwrRYqILnOid-16" value="do: f with closure" style="rounded=1;whiteSpace=wrap;html=1;fontSize=19;" vertex="1" parent="1">
          <mxGeometry x="428.53" y="1570" width="155" height="60" as="geometry" />
        </mxCell>
      </root>
    </mxGraphModel>
  </diagram>
</mxfile>
